<?xml version="1.0" encoding="UTF-8"?>
<svg version="1.1" xmlns="http://www.w3.org/2000/svg" width="96" height="64">
<path d="M0 0 C6.12127643 4.89946476 9.74952807 11.97329247 11.8125 19.4375 C12.7049742 28.19620025 12.05120187 35.67119428 7.8125 43.4375 C7.2865625 44.40623047 7.2865625 44.40623047 6.75 45.39453125 C2.93555181 51.47380804 -2.89209186 55.01595139 -9.375 57.8125 C-20.54754508 59.64406477 -30.81743898 59.22870817 -40.375 52.875 C-46.49627643 47.97553524 -50.12452807 40.90170753 -52.1875 33.4375 C-53.0799742 24.67879975 -52.42620187 17.20380572 -48.1875 9.4375 C-47.836875 8.79167969 -47.48625 8.14585938 -47.125 7.48046875 C-43.31055181 1.40119196 -37.48290814 -2.14095139 -31 -4.9375 C-19.82745492 -6.76906477 -9.55756102 -6.35370817 0 0 Z M-19.5625 16.4375 C-26.00369657 19.00490652 -32.54132866 19.65289045 -39.1875 17.4375 C-39.26836376 20.37554996 -39.3279283 23.31138075 -39.375 26.25 C-39.40013672 27.08337891 -39.42527344 27.91675781 -39.45117188 28.77539062 C-39.46083984 29.57783203 -39.47050781 30.38027344 -39.48046875 31.20703125 C-39.4961792 31.94542236 -39.51188965 32.68381348 -39.52807617 33.44458008 C-39.09062513 36.00437426 -38.21807351 36.86782624 -36.1875 38.4375 C-29.88119235 39.49199734 -24.14285956 38.39115813 -18.2421875 36.17578125 C-12.66056892 34.17021868 -7.93587753 34.53632918 -2.1875 35.4375 C-2.10062504 32.31267438 -2.04715432 29.18815754 -2 26.0625 C-1.97486328 25.17304688 -1.94972656 24.28359375 -1.92382812 23.3671875 C-1.90932617 22.09101563 -1.90932617 22.09101563 -1.89453125 20.7890625 C-1.87096558 19.61077881 -1.87096558 19.61077881 -1.84692383 18.40869141 C-1.95931396 17.75819824 -2.0717041 17.10770508 -2.1875 16.4375 C-7.86482793 12.65261471 -13.48605822 13.98254788 -19.5625 16.4375 Z " fill="#0F8DE9" transform="translate(68.1875,5.5625)"/>
</svg>
