<?xml version="1.0" encoding="UTF-8"?>
<svg version="1.1" xmlns="http://www.w3.org/2000/svg" width="70" height="64">
<path d="M0 0 C0.73992188 -0.00128906 1.47984375 -0.00257812 2.2421875 -0.00390625 C3.36367187 0.00189453 3.36367187 0.00189453 4.5078125 0.0078125 C5.66410156 0.00201172 5.66410156 0.00201172 6.84375 -0.00390625 C12.50606261 0.00606261 12.50606261 0.00606261 13.6328125 1.1328125 C13.765625 2.9453125 13.765625 2.9453125 13.7578125 5.1328125 C13.76167969 6.215625 13.76167969 6.215625 13.765625 7.3203125 C13.6328125 9.1328125 13.6328125 9.1328125 12.6328125 10.1328125 C11.0979828 10.22600699 9.55889168 10.2502705 8.02124023 10.24633789 C7.04029892 10.24626236 6.0593576 10.24618683 5.0486908 10.24610901 C3.9820369 10.24094772 2.915383 10.23578644 1.81640625 10.23046875 C0.18711937 10.22834633 0.18711937 10.22834633 -1.4750824 10.22618103 C-4.95997825 10.22056298 -8.44481092 10.20800742 -11.9296875 10.1953125 C-14.28580637 10.19029983 -16.64192624 10.18573652 -18.99804688 10.18164062 C-24.78778214 10.17058769 -30.57748031 10.15383201 -36.3671875 10.1328125 C-36.3671875 10.7928125 -36.3671875 11.4528125 -36.3671875 12.1328125 C-35.63469284 12.13867874 -34.90219818 12.14454498 -34.14750671 12.15058899 C-27.24636762 12.2084789 -20.34550638 12.28053416 -13.44468975 12.36852741 C-9.89682471 12.41326632 -6.34907542 12.45251421 -2.80102539 12.47924805 C1.27747791 12.51021876 5.35535795 12.56500855 9.43359375 12.62109375 C10.70866287 12.62748367 11.98373199 12.6338736 13.29743958 12.64045715 C15.06893623 12.67014839 15.06893623 12.67014839 16.8762207 12.70043945 C17.91768753 12.71154251 18.95915436 12.72264557 20.03218079 12.73408508 C22.6328125 13.1328125 22.6328125 13.1328125 24.46833801 14.38334656 C25.93719874 16.59011179 26.01294879 17.91427283 26.02099609 20.55664062 C26.03045258 21.44766479 26.03990906 22.33868896 26.0496521 23.25671387 C26.04357941 24.21613892 26.03750671 25.17556396 26.03125 26.1640625 C26.03412018 27.15152466 26.03699036 28.13898682 26.03994751 29.15637207 C26.04198925 31.2443906 26.03645175 33.3324282 26.02392578 35.42041016 C26.007874 38.62055133 26.02377109 41.81942946 26.04296875 45.01953125 C26.04098634 47.04687779 26.03714271 49.07422355 26.03125 51.1015625 C26.03732269 52.06098755 26.04339539 53.0204126 26.0496521 54.00891113 C26.03546738 55.34544739 26.03546738 55.34544739 26.02099609 56.70898438 C26.01860931 57.49269409 26.01622253 58.27640381 26.01376343 59.0838623 C25.6328125 61.1328125 25.6328125 61.1328125 24.49404907 62.88504028 C21.79308059 64.69576842 19.69998793 64.51410947 16.46484375 64.52099609 C15.19342529 64.53045258 13.92200684 64.53990906 12.61206055 64.5496521 C11.22314137 64.54428241 9.83422502 64.53812946 8.4453125 64.53125 C7.02188976 64.53327089 5.59846803 64.53618245 4.17504883 64.53994751 C1.19244526 64.54437021 -1.78988871 64.53794185 -4.77246094 64.52392578 C-8.59603841 64.50683353 -12.41898416 64.51667505 -16.24253845 64.53464317 C-19.18164837 64.54548269 -22.12060847 64.54203399 -25.0597229 64.5342598 C-26.46953404 64.53225823 -27.87935878 64.53471556 -29.28915405 64.54169846 C-31.25917298 64.54931473 -33.22923959 64.53564829 -35.19921875 64.52099609 C-36.32046143 64.51860931 -37.4417041 64.51622253 -38.59692383 64.51376343 C-41.3671875 64.1328125 -41.3671875 64.1328125 -43.22644043 62.9356842 C-44.77040495 60.49555525 -44.76131277 58.78063465 -44.78710938 55.89868164 C-44.80302124 54.83069839 -44.81893311 53.76271515 -44.83532715 52.66236877 C-44.83552856 51.50921677 -44.83572998 50.35606476 -44.8359375 49.16796875 C-44.84355103 47.98311386 -44.85116455 46.79825897 -44.85900879 45.57749939 C-44.86982165 43.06999826 -44.87265811 40.56245205 -44.86816406 38.05493164 C-44.86719213 34.21359296 -44.90879667 30.37425304 -44.953125 26.53320312 C-44.958332 24.09896251 -44.96102019 21.66471493 -44.9609375 19.23046875 C-44.97733276 18.07934097 -44.99372803 16.9282132 -45.01062012 15.74220276 C-44.94214634 7.86027127 -44.94214634 7.86027127 -42.22802734 4.42626953 C-38.98766265 2.96121985 -36.55049829 2.52175424 -33 2.33984375 C-31.78441406 2.26701172 -30.56882812 2.19417969 -29.31640625 2.11914062 C-28.05441406 2.06177734 -26.79242187 2.00441406 -25.4921875 1.9453125 C-22.99468097 1.80798814 -20.4972802 1.66872416 -18 1.52734375 C-16.89543457 1.47425049 -15.79086914 1.42115723 -14.65283203 1.36645508 C-9.73763362 1.01693473 -4.93626384 0.00832021 0 0 Z M-18.3671875 25.1328125 C-20.26436334 27.90637525 -20.26436334 27.90637525 -20.3671875 31.1328125 C-17.16504623 37.16761719 -12.23250331 38.75353415 -6.01171875 41.0546875 C-3.3671875 42.1328125 -3.3671875 42.1328125 -1.3671875 44.1328125 C-0.9296875 47.0703125 -0.9296875 47.0703125 -1.3671875 50.1328125 C-3.64799514 52.41362014 -5.29299635 53.12115762 -8.52734375 53.15625 C-12.76496958 52.77422697 -16.50663915 52.00081977 -20.3671875 50.1328125 C-20.3671875 51.1228125 -20.3671875 52.1128125 -20.3671875 53.1328125 C-15.036919 55.85465173 -10.3705122 57.26387368 -4.3671875 56.1328125 C-1.39016169 54.81511255 -0.53007548 53.79482848 1.6328125 51.1328125 C2.12385235 48.27633338 1.93052624 46.06033093 1.6328125 43.1328125 C0.3128125 42.4728125 -1.0071875 41.8128125 -2.3671875 41.1328125 C-2.3671875 40.4728125 -2.3671875 39.8128125 -2.3671875 39.1328125 C-3.63175781 38.64361328 -3.63175781 38.64361328 -4.921875 38.14453125 C-6.01757812 37.70753906 -7.11328125 37.27054688 -8.2421875 36.8203125 C-9.33273438 36.39105469 -10.42328125 35.96179687 -11.546875 35.51953125 C-14.3671875 34.1328125 -14.3671875 34.1328125 -16.3671875 31.1328125 C-16.2421875 28.5703125 -16.2421875 28.5703125 -15.3671875 26.1328125 C-13.7421875 24.7578125 -13.7421875 24.7578125 -11.3671875 24.1328125 C-7.60533428 24.46869225 -4.00323923 25.11471802 -0.3671875 26.1328125 C-1.03517492 22.99071045 -1.03517492 22.99071045 -3.5546875 21.9453125 C-9.76135089 20.15227641 -13.41875633 20.8591674 -18.3671875 25.1328125 Z " fill="#ED4C2C" transform="translate(44.3671875,-0.1328125)"/>
</svg>
